# xmcd CD database file
#
# Track frame offsets:
#	150
#	24858
#	51253
#	69631
#	90307
#	107960
#	122972
#	133768
#	157010
#	173920
#	196859
#	212498
#	230744
#
# Disc length: 3385 seconds
#
# Revision: 0
# Processed by: cddbd v1.5.1PL0 Copyright (c) Steve Scherf et al.
# Submitted via: CDex 1.51
#
DISCID=b50d370d
DTITLE=Aeone - Point Of Faith
DYEAR=2003
DGENRE=New Age
TTITLE0=One Tribe
TTITLE1=Point Of Faith
TTITLE2=Umbra Nihili
TTITLE3=The Last Breath
TTITLE4=She Walks With Me
TTITLE5=4 Chambers
TTITLE6=The Singing Cloud
TTITLE7=Come Away
TTITLE8=The Waterdance
TTITLE9=Matter Of The Heart
TTITLE10=In Search Of Kyrie
TTITLE11=I Will Remember You
TTITLE12=The Calling
EXTD=YEAR: 2003
EXTT0=
EXTT1=
EXTT2=
EXTT3=
EXTT4=
EXTT5=
EXTT6=
EXTT7=
EXTT8=
EXTT9=
EXTT10=
EXTT11=
EXTT12=
PLAYORDER=
